<?xml version="1.0" encoding="utf-8"?>
<!-- Generator: Adobe Illustrator 27.8.1, SVG Export Plug-In . SVG Version: 6.00 Build 0)  -->
<svg version="1.1" id="Layer_1" xmlns="http://www.w3.org/2000/svg" xmlns:xlink="http://www.w3.org/1999/xlink" x="0px" y="0px"
	 viewBox="0 0 16 16" style="enable-background:new 0 0 16 16;" xml:space="preserve">
<style type="text/css">
	.st0{fill:#FFFFFF;}
</style>
<path class="st0" d="M1.2,1.5c-0.4,0-0.8,0.3-0.8,0.8v1.5c0,0.4,0.3,0.8,0.8,0.8h1.5c0.4,0,0.8-0.3,0.8-0.8V2.2
	c0-0.4-0.3-0.8-0.8-0.8H1.2z M6,2C5.4,2,5,2.4,5,3s0.4,1,1,1h9c0.6,0,1-0.4,1-1s-0.4-1-1-1H6z M6,7C5.4,7,5,7.4,5,8s0.4,1,1,1h9
	c0.6,0,1-0.4,1-1s-0.4-1-1-1H6z M6,12c-0.6,0-1,0.4-1,1s0.4,1,1,1h9c0.6,0,1-0.4,1-1s-0.4-1-1-1H6z M0.5,7.2v1.5
	c0,0.4,0.3,0.8,0.8,0.8h1.5c0.4,0,0.8-0.3,0.8-0.8V7.2c0-0.4-0.3-0.8-0.8-0.8H1.2C0.8,6.5,0.5,6.8,0.5,7.2z M1.2,11.5
	c-0.4,0-0.8,0.3-0.8,0.8v1.5c0,0.4,0.3,0.8,0.8,0.8h1.5c0.4,0,0.8-0.3,0.8-0.8v-1.5c0-0.4-0.3-0.8-0.8-0.8H1.2z"/>
</svg>
